<svg width="23" height="24" viewBox="0 0 23 24" fill="none" xmlns="http://www.w3.org/2000/svg">
<path d="M9.00076 10.9473C8.2615 10.9473 7.67788 11.5848 7.67788 12.3625C7.67788 13.1403 8.27447 13.7778 9.00076 13.7778C9.74001 13.7778 10.3236 13.1403 10.3236 12.3625C10.3366 11.5848 9.74001 10.9473 9.00076 10.9473ZM13.7346 10.9473C12.9953 10.9473 12.4117 11.5848 12.4117 12.3625C12.4117 13.1403 13.0083 13.7778 13.7346 13.7778C14.4738 13.7778 15.0575 13.1403 15.0575 12.3625C15.0575 11.5848 14.4738 10.9473 13.7346 10.9473Z" fill="white"/>
<path d="M20.0377 0.25H2.65872C1.19318 0.25 0 1.423 0 2.8765V20.1145C0 21.568 1.19318 22.741 2.65872 22.741H16.6975C17.0318 22.741 17.2725 22.4201 17.179 22.0992C17.0372 21.6125 17.6246 21.2468 17.9987 21.5888L18.3387 21.8995L19.908 23.3275C20.9981 24.2745 22.6964 23.5003 22.6964 22.0563V2.8765C22.6964 1.423 21.5032 0.25 20.0377 0.25ZM15.3546 16.8836C15.1512 16.8999 14.9547 16.8113 14.8235 16.6551C14.7675 16.5885 14.7031 16.5115 14.6339 16.4283C14.4151 16.1652 14.5436 15.7647 14.8576 15.6288C15.0031 15.5659 15.1378 15.4993 15.2623 15.4309C15.6134 15.238 15.4078 14.9663 15.0315 15.1037C14.3831 15.3715 13.7605 15.55 13.151 15.652C11.9059 15.8815 10.7646 15.8177 9.79189 15.6392C9.05263 15.499 8.41713 15.295 7.88539 15.091C7.58709 14.9762 7.26286 14.836 6.93862 14.6575C6.89971 14.632 6.86081 14.6192 6.8219 14.5938C6.80171 14.5838 6.78938 14.5739 6.77879 14.564C6.77288 14.5584 6.75716 14.5485 6.75007 14.5446C6.66728 14.499 6.59885 14.5892 6.66341 14.6582C6.91321 14.9252 7.35735 15.3101 8.04722 15.614C8.33934 15.7427 8.4565 16.1162 8.25381 16.3628C8.16916 16.4658 8.08999 16.5616 8.02253 16.643C7.88702 16.8066 7.6824 16.8999 7.47071 16.8825C6.26908 16.7833 5.40768 16.3701 4.82755 15.9524C4.08492 15.4177 3.83192 14.4782 3.92173 13.5675C4.13435 11.4117 4.78717 9.5857 5.24455 8.52354C5.53214 7.85569 6.01008 7.28249 6.65392 6.94454C7.97199 6.25269 9.08536 6.19574 9.31888 6.19168C9.34755 6.19118 9.37451 6.20402 9.39305 6.22589C9.44014 6.28144 9.41342 6.36733 9.34361 6.38807C8.15076 6.7424 7.30116 7.18294 6.76881 7.51616C6.65858 7.58516 6.72932 7.69853 6.84784 7.645C8.23556 7.04575 9.33796 6.88 9.79189 6.84175C9.8697 6.829 9.93455 6.81625 10.0124 6.81625C10.8035 6.71425 11.6984 6.68875 12.6322 6.79075C12.9843 6.83083 13.3438 6.88862 13.7093 6.96768C14.1565 7.06444 14.3193 6.73925 13.8882 6.58599C13.7667 6.54282 13.6409 6.50032 13.5107 6.45876C13.4158 6.42846 13.3824 6.31031 13.4487 6.23587C13.4739 6.20758 13.5086 6.19107 13.5464 6.19195C13.8063 6.19796 14.9035 6.26496 16.1981 6.94454C16.842 7.28249 17.3199 7.85569 17.6075 8.52354C18.0639 9.58337 18.7149 11.4037 18.9289 13.5533C19.0205 14.4729 18.7622 15.4214 18.0098 15.958C17.4247 16.3754 16.5585 16.7869 15.3546 16.8836Z" fill="white"/>
</svg>
